<svg width="31" height="30" viewBox="0 0 31 30" fill="none" xmlns="http://www.w3.org/2000/svg">
<g id="icon_filled/compass">
<path id="Exclude" fill-rule="evenodd" clip-rule="evenodd" d="M15.3335 2.5C8.42994 2.5 2.8335 8.09644 2.8335 15C2.8335 21.9036 8.42994 27.5 15.3335 27.5C22.2371 27.5 27.8335 21.9036 27.8335 15C27.8335 8.09644 22.2371 2.5 15.3335 2.5ZM20.2694 11.6453C20.4191 11.1962 20.3022 10.7009 19.9674 10.3662C19.6326 10.0314 19.1374 9.91446 18.6882 10.0642L13.0632 11.9392C12.69 12.0636 12.3971 12.3565 12.2727 12.7297L10.3977 18.3547C10.248 18.8039 10.3649 19.2991 10.6996 19.6339C11.0344 19.9687 11.5296 20.0856 11.9788 19.9359L17.6038 18.0609C17.9771 17.9365 18.27 17.6436 18.3944 17.2703L20.2694 11.6453Z" fill="white"/>
</g>
</svg>
